<mxfile host="www.draw.io" modified="2019-12-17T07:26:32.169Z" agent="Mozilla/5.0 (Windows NT 10.0; WOW64) AppleWebKit/537.36 (KHTML, like Gecko) Chrome/78.0.3904.108 Safari/537.36" etag="Szg5klFtKt-6gznMGdyJ" version="12.4.2" type="github" pages="1">
  <diagram id="QZ3YRRs-mxI_9y85tACa" name="第 1 页">
    <mxGraphModel dx="1422" dy="2313" grid="1" gridSize="10" guides="1" tooltips="1" connect="1" arrows="1" fold="1" page="1" pageScale="1" pageWidth="1200" pageHeight="1600" math="0" shadow="0">
      <root>
        <mxCell id="0"/>
        <mxCell id="1" parent="0"/>
        <mxCell id="oMY9XHx9CSib1Cclx6ys-13" style="edgeStyle=none;rounded=0;orthogonalLoop=1;jettySize=auto;html=1;exitX=0.5;exitY=1;exitDx=0;exitDy=0;entryX=0.5;entryY=0;entryDx=0;entryDy=0;" parent="1" source="oMY9XHx9CSib1Cclx6ys-1" target="oMY9XHx9CSib1Cclx6ys-6" edge="1">
          <mxGeometry relative="1" as="geometry">
            <Array as="points">
              <mxPoint x="910" y="-480"/>
              <mxPoint x="310" y="-480"/>
            </Array>
          </mxGeometry>
        </mxCell>
        <mxCell id="oMY9XHx9CSib1Cclx6ys-15" style="edgeStyle=none;rounded=0;orthogonalLoop=1;jettySize=auto;html=1;exitX=0.5;exitY=1;exitDx=0;exitDy=0;entryX=0.5;entryY=0;entryDx=0;entryDy=0;" parent="1" source="oMY9XHx9CSib1Cclx6ys-1" target="oMY9XHx9CSib1Cclx6ys-7" edge="1">
          <mxGeometry relative="1" as="geometry">
            <Array as="points">
              <mxPoint x="910" y="-480"/>
              <mxPoint x="460" y="-480"/>
            </Array>
          </mxGeometry>
        </mxCell>
        <mxCell id="oMY9XHx9CSib1Cclx6ys-24" style="edgeStyle=none;rounded=0;orthogonalLoop=1;jettySize=auto;html=1;exitX=0.5;exitY=1;exitDx=0;exitDy=0;entryX=0.5;entryY=0;entryDx=0;entryDy=0;" parent="1" source="oMY9XHx9CSib1Cclx6ys-1" target="oMY9XHx9CSib1Cclx6ys-9" edge="1">
          <mxGeometry relative="1" as="geometry">
            <Array as="points">
              <mxPoint x="910" y="-480"/>
              <mxPoint x="758" y="-480"/>
            </Array>
          </mxGeometry>
        </mxCell>
        <mxCell id="oMY9XHx9CSib1Cclx6ys-25" style="edgeStyle=none;rounded=0;orthogonalLoop=1;jettySize=auto;html=1;exitX=0.5;exitY=1;exitDx=0;exitDy=0;entryX=0.5;entryY=0;entryDx=0;entryDy=0;" parent="1" source="oMY9XHx9CSib1Cclx6ys-1" target="oMY9XHx9CSib1Cclx6ys-10" edge="1">
          <mxGeometry relative="1" as="geometry">
            <Array as="points">
              <mxPoint x="910" y="-480"/>
              <mxPoint x="950" y="-480"/>
            </Array>
          </mxGeometry>
        </mxCell>
        <mxCell id="oMY9XHx9CSib1Cclx6ys-26" style="edgeStyle=none;rounded=0;orthogonalLoop=1;jettySize=auto;html=1;entryX=0.5;entryY=0;entryDx=0;entryDy=0;exitX=0.5;exitY=1;exitDx=0;exitDy=0;" parent="1" source="oMY9XHx9CSib1Cclx6ys-1" target="oMY9XHx9CSib1Cclx6ys-11" edge="1">
          <mxGeometry relative="1" as="geometry">
            <Array as="points">
              <mxPoint x="910" y="-480"/>
              <mxPoint x="1120" y="-480"/>
            </Array>
          </mxGeometry>
        </mxCell>
        <mxCell id="oMY9XHx9CSib1Cclx6ys-27" style="edgeStyle=none;rounded=0;orthogonalLoop=1;jettySize=auto;html=1;exitX=0.5;exitY=1;exitDx=0;exitDy=0;entryX=0.5;entryY=0;entryDx=0;entryDy=0;" parent="1" source="oMY9XHx9CSib1Cclx6ys-1" target="oMY9XHx9CSib1Cclx6ys-12" edge="1">
          <mxGeometry relative="1" as="geometry">
            <Array as="points">
              <mxPoint x="910" y="-480"/>
              <mxPoint x="1300" y="-480"/>
            </Array>
          </mxGeometry>
        </mxCell>
        <mxCell id="oMY9XHx9CSib1Cclx6ys-29" style="edgeStyle=none;rounded=0;orthogonalLoop=1;jettySize=auto;html=1;exitX=0.5;exitY=1;exitDx=0;exitDy=0;entryX=0.5;entryY=0;entryDx=0;entryDy=0;" parent="1" source="oMY9XHx9CSib1Cclx6ys-1" target="oMY9XHx9CSib1Cclx6ys-28" edge="1">
          <mxGeometry relative="1" as="geometry">
            <Array as="points">
              <mxPoint x="910" y="-480"/>
              <mxPoint x="1480" y="-480"/>
            </Array>
          </mxGeometry>
        </mxCell>
        <mxCell id="oMY9XHx9CSib1Cclx6ys-79" style="edgeStyle=none;rounded=1;orthogonalLoop=1;jettySize=auto;html=1;exitX=0.5;exitY=0;exitDx=0;exitDy=0;entryX=0.5;entryY=1;entryDx=0;entryDy=0;strokeWidth=1;" parent="1" source="oMY9XHx9CSib1Cclx6ys-1" target="oMY9XHx9CSib1Cclx6ys-70" edge="1">
          <mxGeometry relative="1" as="geometry"/>
        </mxCell>
        <mxCell id="oMY9XHx9CSib1Cclx6ys-1" value="&lt;b&gt;&lt;font style=&quot;font-size: 20px&quot;&gt;AbstractBuff&lt;/font&gt;&lt;/b&gt;" style="rounded=0;whiteSpace=wrap;html=1;" parent="1" vertex="1">
          <mxGeometry x="850" y="-600" width="120" height="60" as="geometry"/>
        </mxCell>
        <mxCell id="oMY9XHx9CSib1Cclx6ys-6" value="&lt;b&gt;&lt;font style=&quot;font-size: 20px&quot;&gt;FringBuff&lt;/font&gt;&lt;/b&gt;" style="rounded=1;whiteSpace=wrap;html=1;" parent="1" vertex="1">
          <mxGeometry x="250" y="-400" width="120" height="40" as="geometry"/>
        </mxCell>
        <mxCell id="oMY9XHx9CSib1Cclx6ys-7" value="&lt;font style=&quot;font-size: 20px&quot;&gt;&lt;b&gt;ToxicBuff&lt;/b&gt;&lt;/font&gt;" style="rounded=1;whiteSpace=wrap;html=1;" parent="1" vertex="1">
          <mxGeometry x="400" y="-400" width="120" height="40" as="geometry"/>
        </mxCell>
        <mxCell id="oMY9XHx9CSib1Cclx6ys-8" value="&lt;font style=&quot;font-size: 20px&quot;&gt;&lt;b&gt;FrozenBuff&lt;/b&gt;&lt;/font&gt;" style="rounded=1;whiteSpace=wrap;html=1;" parent="1" vertex="1">
          <mxGeometry x="545" y="-400" width="120" height="40" as="geometry"/>
        </mxCell>
        <mxCell id="oMY9XHx9CSib1Cclx6ys-9" value="&lt;b&gt;&lt;font style=&quot;font-size: 20px&quot;&gt;GrowBlindBuff&lt;/font&gt;&lt;/b&gt;" style="rounded=1;whiteSpace=wrap;html=1;" parent="1" vertex="1">
          <mxGeometry x="677.5" y="-400" width="160" height="40" as="geometry"/>
        </mxCell>
        <mxCell id="oMY9XHx9CSib1Cclx6ys-10" value="&lt;font style=&quot;font-size: 20px&quot;&gt;&lt;b&gt;SpeedCutBuff&lt;/b&gt;&lt;/font&gt;" style="rounded=1;whiteSpace=wrap;html=1;" parent="1" vertex="1">
          <mxGeometry x="880" y="-400" width="140" height="40" as="geometry"/>
        </mxCell>
        <mxCell id="oMY9XHx9CSib1Cclx6ys-11" value="&lt;b&gt;&lt;font style=&quot;font-size: 20px&quot;&gt;ChaosBuff&lt;/font&gt;&lt;/b&gt;" style="rounded=1;whiteSpace=wrap;html=1;" parent="1" vertex="1">
          <mxGeometry x="1060" y="-400" width="120" height="40" as="geometry"/>
        </mxCell>
        <mxCell id="oMY9XHx9CSib1Cclx6ys-12" value="&lt;b&gt;&lt;font style=&quot;font-size: 20px&quot;&gt;BinDingBuff&lt;/font&gt;&lt;/b&gt;" style="rounded=1;whiteSpace=wrap;html=1;" parent="1" vertex="1">
          <mxGeometry x="1240" y="-400" width="120" height="40" as="geometry"/>
        </mxCell>
        <mxCell id="oMY9XHx9CSib1Cclx6ys-16" style="edgeStyle=none;rounded=0;orthogonalLoop=1;jettySize=auto;html=1;entryX=0.5;entryY=0;entryDx=0;entryDy=0;exitX=0.5;exitY=1;exitDx=0;exitDy=0;" parent="1" source="oMY9XHx9CSib1Cclx6ys-1" target="oMY9XHx9CSib1Cclx6ys-8" edge="1">
          <mxGeometry relative="1" as="geometry">
            <mxPoint x="850" y="-470" as="sourcePoint"/>
            <mxPoint x="600" y="-400" as="targetPoint"/>
            <Array as="points">
              <mxPoint x="910" y="-480"/>
              <mxPoint x="605" y="-480"/>
            </Array>
          </mxGeometry>
        </mxCell>
        <mxCell id="oMY9XHx9CSib1Cclx6ys-28" value="&lt;b&gt;&lt;font style=&quot;font-size: 20px&quot;&gt;StreathBuff&lt;/font&gt;&lt;/b&gt;" style="rounded=1;whiteSpace=wrap;html=1;" parent="1" vertex="1">
          <mxGeometry x="1420" y="-400" width="120" height="40" as="geometry"/>
        </mxCell>
        <mxCell id="oMY9XHx9CSib1Cclx6ys-30" value="&lt;b&gt;&lt;font style=&quot;font-size: 20px&quot;&gt;BuffManger&lt;/font&gt;&lt;/b&gt;" style="rounded=0;whiteSpace=wrap;html=1;" parent="1" vertex="1">
          <mxGeometry x="850" y="-700" width="120" height="60" as="geometry"/>
        </mxCell>
        <mxCell id="oMY9XHx9CSib1Cclx6ys-66" style="edgeStyle=none;rounded=1;orthogonalLoop=1;jettySize=auto;html=1;exitX=1;exitY=0.5;exitDx=0;exitDy=0;entryX=0;entryY=0.5;entryDx=0;entryDy=0;strokeWidth=1;" parent="1" source="oMY9XHx9CSib1Cclx6ys-35" target="oMY9XHx9CSib1Cclx6ys-33" edge="1">
          <mxGeometry relative="1" as="geometry">
            <Array as="points">
              <mxPoint x="420" y="-740"/>
              <mxPoint x="420" y="-680"/>
            </Array>
          </mxGeometry>
        </mxCell>
        <mxCell id="oMY9XHx9CSib1Cclx6ys-35" value="&lt;b&gt;&lt;font style=&quot;font-size: 21px&quot;&gt;AnemyAI&lt;/font&gt;&lt;/b&gt;" style="rounded=0;whiteSpace=wrap;html=1;" parent="1" vertex="1">
          <mxGeometry x="270" y="-770" width="120" height="60" as="geometry"/>
        </mxCell>
        <mxCell id="oMY9XHx9CSib1Cclx6ys-67" style="edgeStyle=none;rounded=1;orthogonalLoop=1;jettySize=auto;html=1;exitX=1;exitY=0.5;exitDx=0;exitDy=0;strokeWidth=1;entryX=0;entryY=0.5;entryDx=0;entryDy=0;" parent="1" source="oMY9XHx9CSib1Cclx6ys-36" target="oMY9XHx9CSib1Cclx6ys-33" edge="1">
          <mxGeometry relative="1" as="geometry">
            <mxPoint x="460" y="-680" as="targetPoint"/>
            <Array as="points">
              <mxPoint x="420" y="-630"/>
              <mxPoint x="420" y="-680"/>
            </Array>
          </mxGeometry>
        </mxCell>
        <mxCell id="oMY9XHx9CSib1Cclx6ys-36" value="&lt;b&gt;&lt;font style=&quot;font-size: 20px&quot;&gt;PlayerAI&lt;/font&gt;&lt;/b&gt;" style="rounded=0;whiteSpace=wrap;html=1;" parent="1" vertex="1">
          <mxGeometry x="270" y="-660" width="120" height="60" as="geometry"/>
        </mxCell>
        <mxCell id="oMY9XHx9CSib1Cclx6ys-80" style="edgeStyle=none;rounded=1;orthogonalLoop=1;jettySize=auto;html=1;entryX=0;entryY=0.5;entryDx=0;entryDy=0;strokeWidth=1;" parent="1" source="oMY9XHx9CSib1Cclx6ys-46" target="oMY9XHx9CSib1Cclx6ys-70" edge="1">
          <mxGeometry relative="1" as="geometry">
            <Array as="points">
              <mxPoint x="790" y="-906"/>
              <mxPoint x="790" y="-770"/>
            </Array>
          </mxGeometry>
        </mxCell>
        <mxCell id="oMY9XHx9CSib1Cclx6ys-46" value="&lt;span style=&quot;font-size: 20px&quot;&gt;&lt;b&gt;Health&lt;/b&gt;&lt;/span&gt;" style="rounded=0;whiteSpace=wrap;html=1;" parent="1" vertex="1">
          <mxGeometry x="500" y="-927" width="120" height="39" as="geometry"/>
        </mxCell>
        <mxCell id="oMY9XHx9CSib1Cclx6ys-65" style="edgeStyle=none;rounded=1;orthogonalLoop=1;jettySize=auto;html=1;exitX=1;exitY=0.5;exitDx=0;exitDy=0;entryX=0;entryY=0.5;entryDx=0;entryDy=0;strokeWidth=1;" parent="1" source="oMY9XHx9CSib1Cclx6ys-48" target="oMY9XHx9CSib1Cclx6ys-46" edge="1">
          <mxGeometry relative="1" as="geometry">
            <Array as="points">
              <mxPoint x="420" y="-840"/>
              <mxPoint x="420" y="-907"/>
            </Array>
          </mxGeometry>
        </mxCell>
        <mxCell id="oMY9XHx9CSib1Cclx6ys-48" value="&lt;span style=&quot;font-size: 20px&quot;&gt;&lt;b&gt;PlayerHealth&lt;/b&gt;&lt;/span&gt;" style="rounded=0;whiteSpace=wrap;html=1;" parent="1" vertex="1">
          <mxGeometry x="270" y="-870" width="120" height="60" as="geometry"/>
        </mxCell>
        <mxCell id="oMY9XHx9CSib1Cclx6ys-64" style="edgeStyle=none;rounded=1;orthogonalLoop=1;jettySize=auto;html=1;exitX=1;exitY=0.5;exitDx=0;exitDy=0;entryX=0;entryY=0.5;entryDx=0;entryDy=0;strokeWidth=1;" parent="1" source="oMY9XHx9CSib1Cclx6ys-49" target="oMY9XHx9CSib1Cclx6ys-46" edge="1">
          <mxGeometry relative="1" as="geometry">
            <Array as="points">
              <mxPoint x="420" y="-957"/>
              <mxPoint x="420" y="-907"/>
            </Array>
          </mxGeometry>
        </mxCell>
        <mxCell id="oMY9XHx9CSib1Cclx6ys-49" value="&lt;b&gt;&lt;font style=&quot;font-size: 20px&quot;&gt;EnemyHealth&lt;/font&gt;&lt;/b&gt;" style="rounded=0;whiteSpace=wrap;html=1;" parent="1" vertex="1">
          <mxGeometry x="270" y="-987" width="130" height="60" as="geometry"/>
        </mxCell>
        <mxCell id="oMY9XHx9CSib1Cclx6ys-84" style="edgeStyle=none;rounded=1;orthogonalLoop=1;jettySize=auto;html=1;exitX=1;exitY=0.5;exitDx=0;exitDy=0;entryX=0;entryY=0.5;entryDx=0;entryDy=0;strokeWidth=1;" parent="1" source="oMY9XHx9CSib1Cclx6ys-70" target="oMY9XHx9CSib1Cclx6ys-71" edge="1">
          <mxGeometry relative="1" as="geometry">
            <Array as="points">
              <mxPoint x="1120" y="-770"/>
              <mxPoint x="1120" y="-840"/>
            </Array>
          </mxGeometry>
        </mxCell>
        <mxCell id="oMY9XHx9CSib1Cclx6ys-85" style="edgeStyle=none;rounded=1;orthogonalLoop=1;jettySize=auto;html=1;exitX=1;exitY=0.5;exitDx=0;exitDy=0;entryX=0;entryY=0.5;entryDx=0;entryDy=0;strokeWidth=1;" parent="1" source="oMY9XHx9CSib1Cclx6ys-70" target="oMY9XHx9CSib1Cclx6ys-72" edge="1">
          <mxGeometry relative="1" as="geometry">
            <Array as="points">
              <mxPoint x="1120" y="-770"/>
              <mxPoint x="1120" y="-710"/>
            </Array>
          </mxGeometry>
        </mxCell>
        <mxCell id="oMY9XHx9CSib1Cclx6ys-96" value="" style="edgeStyle=none;rounded=1;orthogonalLoop=1;jettySize=auto;html=1;strokeWidth=1;" parent="1" source="oMY9XHx9CSib1Cclx6ys-70" edge="1">
          <mxGeometry relative="1" as="geometry">
            <mxPoint x="910" y="-880" as="targetPoint"/>
          </mxGeometry>
        </mxCell>
        <mxCell id="oMY9XHx9CSib1Cclx6ys-70" value="&lt;b&gt;&lt;font style=&quot;font-size: 20px&quot;&gt;Role&lt;/font&gt;&lt;/b&gt;" style="rounded=0;whiteSpace=wrap;html=1;" parent="1" vertex="1">
          <mxGeometry x="850" y="-800" width="120" height="60" as="geometry"/>
        </mxCell>
        <mxCell id="oMY9XHx9CSib1Cclx6ys-92" style="edgeStyle=none;rounded=1;orthogonalLoop=1;jettySize=auto;html=1;exitX=1;exitY=0.5;exitDx=0;exitDy=0;entryX=0;entryY=0.5;entryDx=0;entryDy=0;strokeWidth=1;" parent="1" source="oMY9XHx9CSib1Cclx6ys-71" target="oMY9XHx9CSib1Cclx6ys-91" edge="1">
          <mxGeometry relative="1" as="geometry"/>
        </mxCell>
        <mxCell id="oMY9XHx9CSib1Cclx6ys-71" value="&lt;b&gt;&lt;font style=&quot;font-size: 20px&quot;&gt;Enemy&lt;/font&gt;&lt;/b&gt;" style="rounded=0;whiteSpace=wrap;html=1;" parent="1" vertex="1">
          <mxGeometry x="1160" y="-870" width="120" height="60" as="geometry"/>
        </mxCell>
        <mxCell id="oMY9XHx9CSib1Cclx6ys-94" value="" style="edgeStyle=none;rounded=1;orthogonalLoop=1;jettySize=auto;html=1;strokeWidth=1;" parent="1" source="oMY9XHx9CSib1Cclx6ys-72" target="oMY9XHx9CSib1Cclx6ys-93" edge="1">
          <mxGeometry relative="1" as="geometry"/>
        </mxCell>
        <mxCell id="oMY9XHx9CSib1Cclx6ys-72" value="&lt;b&gt;&lt;font style=&quot;font-size: 20px&quot;&gt;Player&lt;/font&gt;&lt;/b&gt;" style="rounded=0;whiteSpace=wrap;html=1;" parent="1" vertex="1">
          <mxGeometry x="1160" y="-740" width="120" height="60" as="geometry"/>
        </mxCell>
        <mxCell id="oMY9XHx9CSib1Cclx6ys-93" value="&lt;span style=&quot;font-size: 20px&quot;&gt;&lt;b&gt;多种职业（攻击方式为职业提供&lt;br&gt;）&lt;/b&gt;&lt;/span&gt;" style="rounded=0;whiteSpace=wrap;html=1;" parent="1" vertex="1">
          <mxGeometry x="1370" y="-755" width="120" height="90" as="geometry"/>
        </mxCell>
        <mxCell id="oMY9XHx9CSib1Cclx6ys-81" style="edgeStyle=none;rounded=1;orthogonalLoop=1;jettySize=auto;html=1;exitX=1;exitY=0.5;exitDx=0;exitDy=0;strokeWidth=1;" parent="1" source="oMY9XHx9CSib1Cclx6ys-33" edge="1">
          <mxGeometry relative="1" as="geometry">
            <mxPoint x="850" y="-770" as="targetPoint"/>
            <Array as="points">
              <mxPoint x="790" y="-680"/>
              <mxPoint x="790" y="-770"/>
            </Array>
          </mxGeometry>
        </mxCell>
        <mxCell id="oMY9XHx9CSib1Cclx6ys-33" value="&lt;font style=&quot;font-size: 20px&quot;&gt;&lt;b&gt;AI&lt;/b&gt;&lt;/font&gt;" style="rounded=0;whiteSpace=wrap;html=1;" parent="1" vertex="1">
          <mxGeometry x="500" y="-700" width="120" height="40" as="geometry"/>
        </mxCell>
        <mxCell id="oMY9XHx9CSib1Cclx6ys-91" value="&lt;b&gt;&lt;font style=&quot;font-size: 20px&quot;&gt;多种敌人&lt;/font&gt;&lt;/b&gt;" style="rounded=0;whiteSpace=wrap;html=1;" parent="1" vertex="1">
          <mxGeometry x="1370" y="-870" width="120" height="60" as="geometry"/>
        </mxCell>
      </root>
    </mxGraphModel>
  </diagram>
</mxfile>
